<?xml version="1.0" encoding="UTF-8" standalone="no"?>
<!-- Created with Inkscape (http://www.inkscape.org/) -->
<svg
   xmlns:dc="http://purl.org/dc/elements/1.1/"
   xmlns:cc="http://web.resource.org/cc/"
   xmlns:rdf="http://www.w3.org/1999/02/22-rdf-syntax-ns#"
   xmlns:svg="http://www.w3.org/2000/svg"
   xmlns="http://www.w3.org/2000/svg"
   xmlns:sodipodi="http://inkscape.sourceforge.net/DTD/sodipodi-0.dtd"
   xmlns:inkscape="http://www.inkscape.org/namespaces/inkscape"
   width="32px"
   height="32px"
   id="svg1306"
   sodipodi:version="0.32"
   inkscape:version="0.42.2"
   sodipodi:docbase="/home/joe/programming/homespring"
   sodipodi:docname="snow_off.svg"
   inkscape:export-filename="/home/joe/programming/homespring/snow_off.png"
   inkscape:export-xdpi="67.500000"
   inkscape:export-ydpi="67.500000">
  <defs
     id="defs1308" />
  <sodipodi:namedview
     id="base"
     pagecolor="#ffffff"
     bordercolor="#666666"
     borderopacity="1.0"
     inkscape:pageopacity="0.0"
     inkscape:pageshadow="2"
     inkscape:zoom="11.313708"
     inkscape:cx="-1.4704537"
     inkscape:cy="10.567366"
     inkscape:current-layer="layer1"
     showgrid="true"
     inkscape:grid-bbox="false"
     inkscape:document-units="px"
     inkscape:window-width="1479"
     inkscape:window-height="1107"
     inkscape:window-x="0"
     inkscape:window-y="30"
     gridempspacing="4" />
  <metadata
     id="metadata1311">
    <rdf:RDF>
      <cc:Work
         rdf:about="">
        <dc:format>image/svg+xml</dc:format>
        <dc:type
           rdf:resource="http://purl.org/dc/dcmitype/StillImage" />
      </cc:Work>
    </rdf:RDF>
  </metadata>
  <g
     id="layer1"
     inkscape:label="Layer 1"
     inkscape:groupmode="layer">
    <path
       id="path13358"
       style="fill:none;fill-opacity:1.0000000;fill-rule:evenodd;stroke:#969696;stroke-width:0.70000000;stroke-linecap:butt;stroke-linejoin:miter;stroke-opacity:1.0000000;stroke-miterlimit:4.0000000;stroke-dasharray:none"
       d="M 14.059232,11.943308 L 14.073083,11.626044 L 14.381911,11.523536 L 14.887521,11.882857 L 14.999569,11.318522 L 15.308397,11.216014 L 15.041179,11.031552 L 15.023079,10.449915 L 14.506741,10.662626 L 14.239522,10.478163 L 14.322743,9.9042214 L 13.404155,10.149160 L 13.346203,9.9303354 L 12.907946,9.8007998 L 13.230300,9.4926861 L 13.172348,9.2738620 L 13.274832,9.0366972 L 12.989712,8.7009438 L 13.479797,8.5623684 L 13.582279,8.3252037 L 14.489185,8.7563391 L 14.572405,8.1823987 L 14.776463,8.0765860 L 15.121276,8.2709252 L 15.184581,7.8649600 L 15.388639,7.7591469 L 15.226189,7.5779899 L 15.291104,7.1456154 L 14.901293,7.2156748 L 14.738846,7.0345170 L 14.822065,6.4605760 L 14.021778,6.6096351 L 13.987594,6.3852296 L 13.691978,6.1448953 L 13.919229,5.9364194 L 13.885046,5.7120139 L 13.958524,5.4894834 L 13.735493,5.2113996 L 14.105477,5.0444197 L 14.178953,4.8218890 L 14.988506,5.3126946 L 15.071726,4.7387536 L 15.731564,4.2374317 L 15.238168,3.5908719 L 15.321388,3.0169310 L 14.615763,2.3079511 L 15.028553,2.0995092 L 15.061373,1.8973226 L 14.808522,1.5982093 L 15.127014,1.4929490 L 15.159835,1.2907623 L 15.333410,1.3887282 L 15.739172,1.1562503 L 15.680557,1.5846595 L 15.854132,1.6826253 L 16.254785,1.4741833 L 16.655440,1.6826251 L 16.829015,1.5846589 L 16.770401,1.1562500 L 17.176163,1.3887282 L 17.349738,1.2907620 L 17.382558,1.4929485 L 17.701050,1.5982089 L 17.448198,1.8973219 L 17.481020,2.0995091 L 17.893808,2.3079511 L 17.188184,3.0169305 L 17.271404,3.5908716 L 16.778008,4.2374310 L 17.437845,4.7387536 L 17.521066,5.3126946 L 18.330619,4.8218890 L 18.404095,5.0444197 L 18.774078,5.2113996 L 18.551048,5.4894834 L 18.624525,5.7120139 L 18.590342,5.9364194 L 18.817594,6.1448953 L 18.521977,6.3852296 L 18.487794,6.6096351 L 17.687506,6.4605760 L 17.770727,7.0345170 L 17.608279,7.2156748 L 17.218467,7.1456154 L 17.283381,7.5779899 L 17.120933,7.7591469 L 17.324992,7.8649600 L 17.388296,8.2709252 L 17.733108,8.0765860 L 17.937167,8.1823987 L 18.020387,8.7563391 L 18.927292,8.3252037 L 19.029775,8.5623684 L 19.519859,8.7009438 L 19.234740,9.0366972 L 19.337224,9.2738620 L 19.279272,9.4926861 L 19.601626,9.8007998 L 19.163368,9.9303354 L 19.105417,10.149160 L 18.186828,9.9042214 L 18.270049,10.478163 L 18.002829,10.662626 L 17.486493,10.449915 L 17.468392,11.031552 L 17.201174,11.216014 L 17.510002,11.318522 L 17.622052,11.882857 L 18.127661,11.523536 L 18.436489,11.626044 L 18.367848,12.070168 L 18.716861,11.648018 L 18.989397,11.825804 L 19.023154,12.445169 L 19.534466,12.181372 L 19.807003,12.359156 L 19.784905,12.035207 L 20.228699,11.658809 L 19.740708,11.387304 L 19.718609,11.063353 L 20.219484,10.771022 L 19.455761,10.204869 L 19.590877,10.023248 L 19.419282,9.5996854 L 19.861105,9.6600049 L 19.996218,9.4783814 L 20.245599,9.4108608 L 20.330722,8.9786826 L 20.744362,9.2758178 L 20.993741,9.2082963 L 21.221235,10.186357 L 21.722108,9.8940239 L 21.931980,9.9877785 L 21.994676,10.378588 L 22.351724,10.175288 L 22.561597,10.269041 L 22.602162,10.029121 L 22.980875,9.8106326 L 22.683292,9.5492793 L 22.723857,9.3093589 L 23.224733,9.0170248 L 22.609700,8.4837208 L 22.763985,8.3172183 L 22.767912,7.9362542 L 23.072552,7.9842182 L 23.226835,7.8177158 L 23.446703,7.7366146 L 23.525372,7.3889287 L 23.886438,7.5744090 L 24.106305,7.4933062 L 24.226481,8.4323614 L 24.727356,8.1400297 L 25.530524,8.3440623 L 25.729104,7.5553656 L 26.229980,7.2630323 L 26.345225,6.2694128 L 26.765389,6.4625615 L 26.944018,6.3623192 L 27.020568,5.9782077 L 27.301276,6.1618379 L 27.479905,6.0615973 L 27.511357,6.2584122 L 27.945950,6.4310929 L 27.574262,6.6520405 L 27.605715,6.8488563 L 28.018321,7.0325087 L 28.104761,7.4757917 L 28.289508,7.5505842 L 28.588187,7.2379167 L 28.659001,7.7001659 L 28.843750,7.7749559 L 28.706003,7.9265535 L 28.822000,8.2412943 L 28.430503,8.2297502 L 28.292755,8.3813478 L 28.386752,8.8341253 L 27.392599,8.7235952 L 26.995382,9.1461491 L 26.182238,9.1627899 L 26.200945,9.9912593 L 25.803729,10.413813 L 26.691910,10.741531 L 26.563564,10.937609 L 26.663342,11.331075 L 26.306870,11.329762 L 26.178526,11.525841 L 25.981663,11.638853 L 25.960084,11.946490 L 25.587942,11.864878 L 25.391082,11.977890 L 25.009294,11.258920 L 24.612076,11.681474 L 24.369168,11.667199 L 24.181214,11.318583 L 23.883355,11.638648 L 23.640450,11.624374 L 23.684746,11.849927 L 23.406547,12.152285 L 23.773342,12.301032 L 23.817640,12.526584 L 23.420424,12.949137 L 24.322550,13.390185 L 24.200821,13.618069 L 24.397618,14.087810 L 23.957359,14.073840 L 23.835629,14.301724 L 23.628331,14.392665 L 23.588023,14.836761 L 23.213735,14.574544 L 23.006437,14.665486 L 22.625989,13.794245 L 22.228772,14.216799 L 21.918028,14.122612 L 21.762883,13.586161 L 21.296543,13.934235 L 20.985802,13.840048 L 21.097934,14.145513 L 20.726187,14.584640 L 21.322204,14.756443 L 21.434335,15.061907 L 20.953318,15.461699 L 21.410392,15.648188 L 21.441366,15.972108 L 20.978236,16.384737 L 21.503313,16.619945 L 21.534288,16.943864 L 21.773751,16.724572 L 22.344749,16.836778 L 22.252680,16.285985 L 22.492144,16.066692 L 23.033019,16.275945 L 22.999339,15.325857 L 23.225578,15.318221 L 23.449686,14.919943 L 23.678056,15.302948 L 23.904295,15.295310 L 24.112596,15.448155 L 24.503528,15.245189 L 24.529194,15.753842 L 24.737493,15.906685 L 24.114772,16.694451 L 24.655649,16.903701 L 24.713234,17.126233 L 24.446821,17.418955 L 24.828407,17.571295 L 24.885994,17.793825 L 25.098845,17.675921 L 25.505816,17.835725 L 25.524550,17.440111 L 25.737401,17.322206 L 26.278279,17.531458 L 26.311644,16.718092 L 26.538018,16.734869 L 26.838282,16.500367 L 26.990762,16.768427 L 27.217137,16.785205 L 27.417647,16.906508 L 27.738505,16.751188 L 27.818670,17.149113 L 28.019182,17.270415 L 27.360030,17.949963 L 27.900907,18.159216 L 28.242266,18.914318 L 28.982658,18.577721 L 29.523535,18.786973 L 30.372153,18.257437 L 30.483178,18.706344 L 30.672935,18.783474 L 31.020948,18.603781 L 31.052448,18.937733 L 31.242204,19.014864 L 31.107960,19.162186 L 31.243985,19.609610 L 30.839473,19.456831 L 30.705230,19.604155 L 30.818965,20.041231 L 30.526338,20.385239 L 30.583080,20.576305 L 31.013763,20.614812 L 30.696564,20.958432 L 30.753309,21.149496 L 30.548900,21.136351 L 30.375191,21.423305 L 30.140075,21.110058 L 29.935666,21.096912 L 29.640329,21.452748 L 29.106774,20.606654 L 28.528740,20.559641 L 28.008649,19.934352 L 27.372670,20.465616 L 26.794635,20.418605 L 27.092322,21.317297 L 26.859003,21.339240 L 26.613639,21.662607 L 26.392366,21.383121 L 26.159047,21.405064 L 25.947937,21.321646 L 25.693988,21.496621 L 25.525717,21.154810 L 25.314608,21.071391 L 25.638568,20.324579 L 25.060534,20.277566 L 24.920215,20.078775 L 25.075532,19.714443 L 24.639577,19.681191 L 24.499259,19.482400 L 24.350559,19.657685 L 23.940707,19.628759 L 24.053163,20.008256 L 23.904465,20.183541 L 23.326432,20.136529 L 23.544219,21.116796 L 23.290162,21.163745 L 23.045672,21.610522 L 22.782045,21.257644 L 22.527986,21.304594 L 22.327623,21.199252 L 21.955319,21.444682 L 21.926896,20.988569 L 21.726532,20.883226 L 22.170362,20.042505 L 21.592328,19.995492 L 21.472177,19.693836 L 21.794791,19.238019 L 21.231876,19.090524 L 21.111725,18.788870 L 20.942858,19.067018 L 20.367752,19.050251 L 20.605127,19.623319 L 20.436260,19.901465 L 20.043818,19.826251 L 20.403123,20.351363 L 20.169219,20.577576 L 19.557840,20.472848 L 19.701410,21.029999 L 19.467507,21.256211 L 19.788266,21.306656 L 20.056629,21.823000 L 20.429789,21.407547 L 20.750551,21.457993 L 20.924264,22.011308 L 21.645980,21.392498 L 21.793033,21.564596 L 22.244138,21.491419 L 22.087142,21.908790 L 22.234196,22.080887 L 22.244609,22.339038 L 22.647064,22.518074 L 22.265437,22.855337 L 22.275849,23.113487 L 21.271690,23.117939 L 21.445404,23.671252 L 21.307355,23.855040 L 20.912385,23.829320 L 21.031255,24.222620 L 20.893206,24.406409 L 21.118112,24.499277 L 21.246976,24.917075 L 21.567925,24.685014 L 21.792832,24.777882 L 21.966547,25.331197 L 22.623193,24.850060 L 22.751246,25.037488 L 23.121811,25.125979 L 23.007347,25.412342 L 23.135399,25.599770 L 23.165612,25.832162 L 23.487121,25.986131 L 23.226039,26.296947 L 23.256253,26.529340 L 22.313972,26.437825 L 22.487686,26.991142 L 22.110267,27.728883 L 22.835112,28.097770 L 23.008826,28.651086 L 23.951989,28.984261 L 23.670297,29.350994 L 23.728336,29.547434 L 24.085831,29.707431 L 23.844411,29.940311 L 23.902448,30.136750 L 23.703566,30.123677 L 23.438624,30.509028 L 23.305801,30.097533 L 23.106916,30.084462 L 22.836163,30.445937 L 22.384755,30.431706 L 22.270777,30.595212 L 22.509251,30.955906 L 22.042823,30.922224 L 21.928847,31.085732 L 21.811652,30.917740 L 21.479003,30.960892 L 21.577260,30.581749 L 21.460066,30.413757 L 20.997721,30.404783 L 21.326417,29.460053 L 21.002703,28.978863 L 21.167183,28.182355 L 20.355272,28.016486 L 20.031557,27.535297 L 19.514655,28.328440 L 19.352002,28.159730 L 18.946202,28.169574 L 19.026699,27.822306 L 18.864047,27.653596 L 18.797608,27.436543 L 18.502459,27.347137 L 18.664732,27.002437 L 18.598293,26.785384 L 19.384129,26.572920 L 19.060415,26.091732 L 19.128314,25.858070 L 19.509982,25.752288 L 19.264113,25.390749 L 19.332012,25.157090 L 19.102255,25.150155 L 18.869281,24.811720 L 18.642742,25.136286 L 18.412985,25.129353 L 18.089271,24.648165 L 17.458773,25.429720 L 17.263639,25.260391 L 16.761910,25.347877 L 16.873369,24.921732 L 16.678234,24.752404 L 16.635637,24.530080 L 16.211603,24.392089 L 16.550440,24.085431 L 16.507840,23.863108 L 17.441841,23.685788 L 17.118127,23.204599 L 17.279015,22.922557 L 17.836530,22.890507 L 17.600795,22.358476 L 17.761682,22.076435 L 17.438936,22.117881 L 17.093404,21.657842 L 16.793444,22.200776 L 16.470698,22.242221 L 16.232066,21.764063 L 15.992930,22.247942 L 15.670227,22.206158 L 15.370836,21.662911 L 15.024822,22.122589 L 14.702120,22.080804 L 14.862714,22.363012 L 14.626419,22.894796 L 15.183900,22.927432 L 15.344494,23.209640 L 15.020276,23.690490 L 15.954090,23.868788 L 15.911258,24.091067 L 16.249774,24.398079 L 15.825595,24.535627 L 15.782765,24.757904 L 15.587451,24.927029 L 15.698466,25.353291 L 15.196828,25.265278 L 15.001518,25.434403 L 14.371837,24.652188 L 14.047619,25.133039 L 13.817856,25.139732 L 13.591657,24.814929 L 13.358328,25.153119 L 13.128565,25.159812 L 13.196219,25.393544 L 12.949971,25.754824 L 13.331529,25.861006 L 13.399183,26.094738 L 13.074965,26.575587 L 13.860578,26.788875 L 13.793912,27.005858 L 13.955821,27.350727 L 13.660580,27.439824 L 13.593916,27.656809 L 13.431087,27.825348 L 13.511218,28.172698 L 13.105429,28.162432 L 12.942600,28.330969 L 12.426528,27.537286 L 12.102310,28.018136 L 11.290227,28.183154 L 11.453872,28.979835 L 11.129654,29.460684 L 11.457361,30.405759 L 10.995007,30.414249 L 10.877636,30.582119 L 10.975496,30.961362 L 10.642894,30.917861 L 10.525523,31.085732 L 10.411717,30.922105 L 9.9452534,30.955297 L 10.184105,30.594854 L 10.070299,30.431227 L 9.6188765,30.444986 L 9.3485007,30.083228 L 9.1496042,30.096092 L 9.0163497,30.507448 L 8.7518112,30.121820 L 8.5529147,30.134684 L 8.6111583,29.938306 L 8.3699824,29.705172 L 8.7276457,29.545550 L 8.7858885,29.349171 L 8.5045828,28.982142 L 9.4480918,28.649958 L 9.6223851,28.096823 L 10.347617,27.728697 L 9.9709717,26.990559 L 10.145264,26.437425 L 9.2028891,26.527951 L 9.2333445,26.295592 L 8.9725913,25.984501 L 9.2942600,25.830869 L 9.3247161,25.598509 L 9.4529635,25.411217 L 9.3387999,25.124734 L 9.7094574,25.036629 L 9.8377056,24.849337 L 10.493850,25.331161 L 10.668143,24.778028 L 10.893146,24.685395 L 11.213852,24.917792 L 11.343154,24.500129 L 11.568157,24.407497 L 11.430301,24.223564 L 11.549584,23.830389 L 11.154586,23.855696 L 11.016730,23.671764 L 11.191022,23.118631 L 10.186869,23.113128 L 10.197552,22.854989 L 9.8162785,22.517327 L 10.218920,22.338712 L 10.229604,22.080572 L 10.376837,21.908629 L 10.220280,21.491095 L 10.671307,21.564742 L 10.818540,21.392798 L 11.539607,22.012364 L 11.713902,21.459232 L 12.034714,21.409121 L 12.407440,21.824966 L 12.676342,21.308903 L 12.997156,21.258794 L 12.763489,21.032337 L 12.907642,20.475337 L 12.296154,20.579423 L 12.062488,20.352966 L 12.297377,19.829023 L 11.779891,19.904619 L 11.611315,19.626293 L 11.849289,19.053475 L 11.274165,19.069641 L 11.105591,18.791315 L 10.985125,19.092843 L 10.422054,19.239747 L 10.744191,19.695904 L 10.623725,19.997433 L 10.045641,20.043841 L 10.488591,20.885028 L 10.288118,20.990159 L 10.259215,21.446245 L 9.8871699,21.200422 L 9.6866960,21.305554 L 9.4326860,21.258338 L 9.1686911,21.610942 L 8.9246700,21.163908 L 8.6706608,21.116692 L 8.8894735,20.136654 L 8.3113914,20.183061 L 8.1628764,20.007620 L 8.2757294,19.628242 L 7.8658471,19.656738 L 7.7173321,19.481298 L 7.5768065,19.679942 L 7.1408175,19.712736 L 7.2957528,20.077231 L 7.1552257,20.275876 L 6.5771420,20.322283 L 6.9003215,21.069434 L 6.6891238,21.152631 L 6.5204938,21.494264 L 6.2667293,21.319026 L 6.0555315,21.402223 L 5.8222367,21.380037 L 5.6006708,21.659288 L 5.3556446,21.335663 L 5.1223498,21.313477 L 5.4209762,20.415097 L 4.8428925,20.461504 L 4.2074716,19.929575 L 3.6867266,20.554319 L 3.1086438,20.600724 L 2.5742025,21.446261 L 2.2792391,21.090116 L 2.0748141,21.103048 L 1.8393712,21.416047 L 1.6659655,21.128910 L 1.4615404,21.141844 L 1.5184835,20.950838 L 1.2016463,20.606885 L 1.6323686,20.568829 L 1.6893117,20.377825 L 1.3970449,20.033511 L 1.5112371,19.596553 L 1.3771474,19.449089 L 0.97247766,19.601443 L 1.1089699,19.154163 L 0.97488021,19.006700 L 1.1647173,18.929769 L 1.1965668,18.595849 L 1.5443915,18.775906 L 1.7342294,18.698974 L 1.8457250,18.250185 L 2.6937862,18.780608 L 3.2348819,18.571923 L 3.9749207,18.909297 L 4.3170722,18.154552 L 4.8581677,17.945866 L 4.1997285,17.265627 L 4.4003666,17.144535 L 4.4809496,16.746695 L 4.8016435,16.902351 L 5.0022807,16.781259 L 5.2286717,16.764717 L 5.3814318,16.496819 L 5.6814517,16.731634 L 5.9078426,16.715093 L 5.9403572,17.528494 L 6.4814528,17.319808 L 6.6941811,17.437935 L 6.7125011,17.833570 L 7.1196383,17.674192 L 7.3323658,17.792319 L 7.3901858,17.569848 L 7.7719315,17.417910 L 7.5058240,17.124908 L 7.5636431,16.902438 L 8.1047378,16.693752 L 7.4828425,15.905335 L 7.6913017,15.752710 L 7.7175012,15.244085 L 8.1082211,15.447459 L 8.3166795,15.294835 L 8.5429110,15.302708 L 8.7716840,14.919943 L 8.9953742,15.318455 L 9.2216049,15.326327 L 9.1869282,16.276380 L 9.7280237,16.067694 L 9.9672577,16.287238 L 9.8746117,16.837933 L 10.445727,16.726325 L 10.684960,16.945867 L 10.716274,16.621982 L 11.241597,16.387324 L 10.778901,15.974208 L 10.810214,15.650323 L 11.292849,15.463050 L 10.837615,15.061493 L 10.950068,14.756145 L 11.546264,14.584966 L 11.174976,14.145449 L 11.287430,13.840103 L 10.976589,13.933966 L 10.510614,13.585402 L 10.354906,14.121691 L 10.044065,14.215554 L 9.6472904,13.792583 L 9.2659299,14.663424 L 9.0587277,14.572267 L 8.6841643,14.834091 L 8.6443224,14.389952 L 8.4371198,14.298795 L 8.3156287,14.070782 L 7.8753554,14.084292 L 8.0726457,13.614758 L 7.9511534,13.386746 L 8.8537411,12.946642 L 8.4569663,12.523673 L 8.5015004,12.298167 L 8.8684504,12.149805 L 8.5905691,11.847155 L 8.6351032,11.621649 L 8.3921817,11.635671 L 8.0946592,11.315293 L 7.9063387,11.663713 L 7.6634171,11.677733 L 7.2666417,11.254764 L 6.8841018,11.973333 L 6.6873586,11.860114 L 6.3151319,11.941335 L 6.2938741,11.633677 L 6.0971309,11.520458 L 5.9689909,11.324247 L 5.6125188,11.325184 L 5.7127091,10.931823 L 5.5845690,10.735612 L 6.4730926,10.408824 L 6.0763177,9.9858538 L 6.0958943,9.1574066 L 5.2827686,9.1399135 L 4.8859937,8.7169434 L 3.8917249,8.8264331 L 3.9861964,8.3737540 L 3.8486063,8.2220120 L 3.4570987,8.2331455 L 3.5734263,7.9185279 L 3.4358361,7.7667858 L 3.6206621,7.6921879 L 3.6919617,7.2300134 L 3.9903129,7.5429929 L 4.1751390,7.4683950 L 4.2620422,7.0252032 L 4.6748401,6.8419819 L 4.7064987,6.6451998 L 4.3350424,6.4238621 L 4.7698159,6.2516370 L 4.8014744,6.0548545 L 4.9799982,6.1552826 L 5.2608979,5.9719466 L 5.3370461,6.3561395 L 5.5155709,6.4565673 L 5.9359360,6.2638596 L 6.0501404,7.2575972 L 6.5507090,7.5504545 L 6.7484636,8.3393607 L 7.5518450,8.1361689 L 8.0524141,8.4290253 L 8.1735752,7.4900973 L 8.3933568,7.5714291 L 8.7546152,7.3863291 L 8.8329203,7.7340954 L 9.0527018,7.8154272 L 9.2068112,7.9820907 L 9.5115006,7.9344452 L 9.5150303,8.3154143 L 9.6691398,8.4820778 L 9.0535501,9.0147387 L 9.5541186,9.3075959 L 9.5944331,9.5475591 L 9.2965757,9.8086004 L 9.6750604,10.027485 L 9.7153742,10.267448 L 9.9253441,10.173913 L 10.282180,10.377589 L 10.345285,9.9868449 L 10.555255,9.8933104 L 11.055823,10.186167 L 11.284340,9.2083457 L 11.533649,9.2761282 L 11.947599,8.9794273 L 12.032269,9.4116934 L 12.281579,9.4794760 L 12.416503,9.6612390 L 12.858389,9.6013843 L 12.686351,10.024767 L 12.821276,10.206530 L 12.056960,10.771881 L 12.557529,11.064737 L 12.535091,11.388665 L 12.046816,11.659658 L 12.490216,12.036520 L 12.467778,12.360446 L 12.740500,12.182949 L 13.251536,12.447278 L 13.285943,11.827950 L 13.558665,11.650451 L 14.059232,11.943308 z M 16.301920,14.791487 L 15.145670,14.306508 L 15.395670,13.806508 L 14.804459,13.495812 L 14.747371,12.942333 L 15.297242,12.558802 L 15.895670,12.806508 L 16.223795,12.306508 L 16.551920,12.806508 L 17.150348,12.558802 L 17.700219,12.942333 L 17.643131,13.495812 L 17.051920,13.806508 L 17.301920,14.306508 L 16.301920,14.791487 z M 14.688729,15.379013 L 13.588557,15.980462 L 13.353589,15.473224 L 12.742023,15.741644 L 12.273747,15.441118 L 12.316830,14.772091 L 12.883655,14.458748 L 12.697406,13.890437 L 13.292897,13.945732 L 13.472439,13.323447 L 14.115163,13.132764 L 14.512238,13.522545 L 14.386438,14.178470 L 14.933209,14.294839 L 14.688729,15.379013 z M 14.194798,17.037373 L 13.978899,18.272487 L 13.435844,18.139854 L 13.264302,18.785327 L 12.737349,18.963986 L 12.241212,18.513096 L 12.349736,17.874585 L 11.789319,17.665780 L 12.203898,17.234745 L 11.829397,16.706329 L 12.081140,16.084975 L 12.633465,16.017637 L 13.067777,16.525019 L 13.499718,16.170155 L 14.194798,17.037373 z M 15.305615,18.428590 L 16.136515,19.367592 L 15.694177,19.709408 L 16.091794,20.246030 L 15.902847,20.769382 L 15.240974,20.876053 L 14.809502,20.393036 L 14.296792,20.700923 L 14.218369,20.108035 L 13.571745,20.071273 L 13.242997,19.486995 L 13.534790,19.013229 L 14.202270,18.990118 L 14.194221,18.431157 L 15.305615,18.428590 z M 16.933460,18.504867 L 18.185669,18.440888 L 18.177034,18.999840 L 18.844489,19.023648 L 19.135785,19.497721 L 18.806425,20.081654 L 18.159763,20.117739 L 18.080721,20.710544 L 17.568333,20.402122 L 17.136355,20.884687 L 16.474593,20.777323 L 16.286196,20.253773 L 16.684375,19.717566 L 16.242394,19.375287 L 16.933460,18.504867 z M 17.915053,17.030736 L 18.645924,16.011939 L 19.077494,16.367255 L 19.512335,15.860327 L 20.064590,15.928245 L 20.315681,16.549863 L 19.940628,17.077886 L 20.354755,17.509353 L 19.794121,17.717572 L 19.901976,18.356197 L 19.405366,18.806569 L 18.878602,18.627356 L 18.707735,17.981702 L 18.164540,18.113768 L 17.915053,17.030736 z M 17.894772,15.354826 L 17.554116,14.148147 L 18.101010,14.032350 L 17.975895,13.376295 L 18.373379,12.986930 L 19.015903,13.178288 L 19.194793,13.800760 L 19.790340,13.746086 L 19.603498,14.314202 L 20.169994,14.628139 L 20.212378,15.297213 L 19.743787,15.597246 L 19.132500,15.328185 L 18.897001,15.835178 L 17.894772,15.354826 z " />
  </g>
</svg>
